<?xml version="1.0" encoding="UTF-8"?>
<svg xmlns="http://www.w3.org/2000/svg" xmlns:xlink="http://www.w3.org/1999/xlink" viewBox="0 0 3840 862">
  <defs>
    <style>
      .cls-1 {
        fill: none;
      }

      .cls-2 {
        fill: url(#linear-gradient);
      }

      .cls-3 {
        clip-path: url(#clippath);
      }

      .cls-4 {
        fill: #e6e6e6;
      }

      .cls-5 {
        fill: #fff;
      }

      .cls-6 {
        fill: #ccc;
      }

      .cls-7 {
        mix-blend-mode: multiply;
      }

      .cls-8 {
        fill: url(#linear-gradient-8);
      }

      .cls-9 {
        fill: url(#linear-gradient-9);
      }

      .cls-10 {
        fill: url(#linear-gradient-3);
      }

      .cls-11 {
        fill: url(#linear-gradient-4);
      }

      .cls-12 {
        fill: url(#linear-gradient-2);
      }

      .cls-13 {
        fill: url(#linear-gradient-6);
      }

      .cls-14 {
        fill: url(#linear-gradient-7);
      }

      .cls-15 {
        fill: url(#linear-gradient-5);
        stroke: #fff;
        stroke-miterlimit: 10;
        stroke-width: 3px;
      }

      .cls-16 {
        fill: url(#linear-gradient-14);
      }

      .cls-17 {
        fill: url(#linear-gradient-18);
      }

      .cls-18 {
        fill: url(#linear-gradient-22);
      }

      .cls-19 {
        fill: url(#linear-gradient-20);
      }

      .cls-20 {
        fill: url(#linear-gradient-21);
      }

      .cls-21 {
        fill: url(#linear-gradient-23);
      }

      .cls-22 {
        fill: url(#linear-gradient-15);
      }

      .cls-23 {
        fill: url(#linear-gradient-19);
      }

      .cls-24 {
        fill: url(#linear-gradient-16);
      }

      .cls-25 {
        fill: url(#linear-gradient-17);
      }

      .cls-26 {
        fill: url(#linear-gradient-13);
      }

      .cls-27 {
        fill: url(#linear-gradient-12);
      }

      .cls-28 {
        fill: url(#linear-gradient-10);
      }

      .cls-29 {
        fill: url(#linear-gradient-11);
      }

      .cls-30 {
        fill: url(#linear-gradient-24);
      }

      .cls-31 {
        isolation: isolate;
      }
    </style>
    <linearGradient id="linear-gradient" x1="56.29" y1="856.18" x2="3765.25" y2="8.04" gradientUnits="userSpaceOnUse">
      <stop offset="0" stop-color="#00c1d0"/>
      <stop offset=".28" stop-color="#13b8ca"/>
      <stop offset=".32" stop-color="#17b7ca"/>
      <stop offset=".43" stop-color="#2ba9d2"/>
      <stop offset=".66" stop-color="#6085ea"/>
      <stop offset=".73" stop-color="#7279f2"/>
      <stop offset="1" stop-color="#b46bf1"/>
    </linearGradient>
    <clipPath id="clippath">
      <rect class="cls-1" width="3840" height="858"/>
    </clipPath>
    <linearGradient id="linear-gradient-2" x1="2.5" y1="-2.17" x2="645.15" y2="-2.17" gradientUnits="userSpaceOnUse">
      <stop offset=".02" stop-color="#fff"/>
      <stop offset="1" stop-color="#e6e6e6"/>
    </linearGradient>
    <linearGradient id="linear-gradient-3" x1="634.94" y1="20.63" x2="746.15" y2="-149.32" gradientUnits="userSpaceOnUse">
      <stop offset=".02" stop-color="#fff"/>
      <stop offset="1" stop-color="#e6e6e6"/>
    </linearGradient>
    <linearGradient id="linear-gradient-4" x1="22.42" y1="563.69" x2="927.44" y2="332.39" gradientUnits="userSpaceOnUse">
      <stop offset="0" stop-color="#fff"/>
      <stop offset="1" stop-color="#ccc"/>
    </linearGradient>
    <linearGradient id="linear-gradient-5" x1="41.62" y1="161.2" x2="693" y2="161.2" gradientUnits="userSpaceOnUse">
      <stop offset="0" stop-color="#e9e8e8"/>
      <stop offset=".31" stop-color="#fff"/>
    </linearGradient>
    <linearGradient id="linear-gradient-6" x1="654.86" y1="288.92" x2="1421.44" y2="288.92" gradientUnits="userSpaceOnUse">
      <stop offset=".02" stop-color="#fff"/>
      <stop offset="1" stop-color="#ccc"/>
    </linearGradient>
    <linearGradient id="linear-gradient-7" x1="785.94" y1="172.64" x2="1165.02" y2="716.84" gradientUnits="userSpaceOnUse">
      <stop offset=".24" stop-color="#fff"/>
      <stop offset="1" stop-color="#b3b3b3"/>
    </linearGradient>
    <linearGradient id="linear-gradient-8" x1="1609.59" y1="563.03" x2="1637.43" y2="-103.63" gradientUnits="userSpaceOnUse">
      <stop offset=".02" stop-color="#fff"/>
      <stop offset="1" stop-color="#ccc"/>
    </linearGradient>
    <linearGradient id="linear-gradient-9" x1="1327.64" y1="683.51" x2="1894.54" y2="714.94" gradientUnits="userSpaceOnUse">
      <stop offset=".02" stop-color="#fff"/>
      <stop offset="1" stop-color="#ccc"/>
    </linearGradient>
    <linearGradient id="linear-gradient-10" x1="1715.45" y1="241.22" x2="2329.68" y2="241.22" gradientUnits="userSpaceOnUse">
      <stop offset=".02" stop-color="#fff"/>
      <stop offset="1" stop-color="#b3b3b3"/>
    </linearGradient>
    <linearGradient id="linear-gradient-11" x1="2329.01" y1="148.11" x2="2118.69" y2="664.57" gradientUnits="userSpaceOnUse">
      <stop offset=".02" stop-color="#fff"/>
      <stop offset="1" stop-color="#ccc"/>
    </linearGradient>
    <linearGradient id="linear-gradient-12" x1="1991.49" y1="528.43" x2="3482.7" y2="-149.57" gradientUnits="userSpaceOnUse">
      <stop offset="0" stop-color="#ccc"/>
      <stop offset=".98" stop-color="#fff"/>
    </linearGradient>
    <linearGradient id="linear-gradient-13" x1="3104.76" y1="-155.94" x2="3675.75" y2="67.57" gradientUnits="userSpaceOnUse">
      <stop offset="0" stop-color="#ccc"/>
      <stop offset=".98" stop-color="#fff"/>
    </linearGradient>
    <linearGradient id="linear-gradient-14" x1="3745.55" y1="480.43" x2="3745.55" y2="110.61" gradientUnits="userSpaceOnUse">
      <stop offset="0" stop-color="#b3b3b3"/>
      <stop offset=".98" stop-color="#f2f2f2"/>
    </linearGradient>
    <linearGradient id="linear-gradient-15" x1="3643.81" y1="564.16" x2="3848.5" y2="564.16" gradientUnits="userSpaceOnUse">
      <stop offset=".02" stop-color="#fff"/>
      <stop offset="1" stop-color="#b3b3b3"/>
    </linearGradient>
    <linearGradient id="linear-gradient-16" x1="3214.93" y1="1012.53" x2="2964.08" y2="276" gradientUnits="userSpaceOnUse">
      <stop offset="0" stop-color="#ccc"/>
      <stop offset=".98" stop-color="#fff"/>
    </linearGradient>
    <linearGradient id="linear-gradient-17" x1="2589.23" y1="1543.38" x2="3565.59" y2="478.94" xlink:href="#linear-gradient-16"/>
    <linearGradient id="linear-gradient-18" x1="2965.48" y1="1872.43" x2="2358.94" y2="662.06" gradientUnits="userSpaceOnUse">
      <stop offset=".02" stop-color="#fff"/>
      <stop offset=".95" stop-color="#ccc"/>
    </linearGradient>
    <linearGradient id="linear-gradient-19" x1="2198.52" y1="856.5" x2="1638.22" y2="496.57" gradientUnits="userSpaceOnUse">
      <stop offset=".2" stop-color="#fff"/>
      <stop offset=".99" stop-color="#ccc"/>
    </linearGradient>
    <linearGradient id="linear-gradient-20" x1="2647.18" y1="1280.7" x2="1765.57" y2="1668.45" gradientUnits="userSpaceOnUse">
      <stop offset=".02" stop-color="#fff"/>
      <stop offset="1" stop-color="#ccc"/>
    </linearGradient>
    <linearGradient id="linear-gradient-21" x1="2715.7" y1="1247.24" x2="1512.92" y2="1782.3" gradientUnits="userSpaceOnUse">
      <stop offset="0" stop-color="#b3b3b3"/>
      <stop offset=".98" stop-color="#fff"/>
    </linearGradient>
    <linearGradient id="linear-gradient-22" x1="1136.1" y1="688.15" x2="1109.96" y2="1362.19" gradientUnits="userSpaceOnUse">
      <stop offset=".02" stop-color="#fff"/>
      <stop offset="1" stop-color="#ccc"/>
    </linearGradient>
    <linearGradient id="linear-gradient-23" x1="1707.47" y1="746.29" x2="1134.78" y2="1048.5" gradientUnits="userSpaceOnUse">
      <stop offset=".02" stop-color="#fff"/>
      <stop offset=".93" stop-color="#e6e6e6"/>
    </linearGradient>
    <linearGradient id="linear-gradient-24" x1="-3.75" y1="1185.52" x2="930.5" y2="1185.52" gradientUnits="userSpaceOnUse">
      <stop offset=".02" stop-color="#fff"/>
      <stop offset="1" stop-color="#e6e6e6"/>
    </linearGradient>
  </defs>
  <g class="cls-31">
    <g id="Gradient">
      <rect class="cls-2" y="-1" width="3840" height="862"/>
      <g class="cls-7">
        <g class="cls-3">
          <g>
            <g>
              <polygon class="cls-6" points="3727.5 -80.36 3847.61 -80.36 3848.5 107.46 3642.6 174.65 3727.5 -80.36"/>
              <path class="cls-5" d="M3846.11-78.86l.88,185.23-202.03,65.93,83.61-251.16h117.54m2.99-3h-122.68l-86.18,258.86,209.76-68.46-.9-190.41h0Z"/>
            </g>
            <g>
              <polygon class="cls-12" points="2.5 -80.4 596.37 -80.4 645.15 76.06 2.5 -80.4"/>
              <path class="cls-5" d="M595.27-78.9l47.66,152.88L15-78.9H595.27m2.21-3H-10L647.37,78.15l-49.89-160.05h0Z"/>
            </g>
            <g>
              <polygon class="cls-10" points="599.51 -80.4 802.61 -80.43 648.06 75.32 599.51 -80.4"/>
              <path class="cls-5" d="M799.01-78.93l-150.26,151.43-47.2-151.4,197.46-.03m7.2-3l-208.74,.03,49.89,160.05,158.85-160.08h0Z"/>
            </g>
            <g>
              <polygon class="cls-11" points="-3.74 405.2 645.46 80.2 930.36 655.89 -2.85 718.52 -3.74 405.2"/>
              <path class="cls-5" d="M644.78,82.21l283.24,572.33L-1.35,716.92l-.89-310.8L644.78,82.21m1.35-4.03L-5.25,404.27l.9,315.85,937.04-62.89L646.13,78.18h0Z"/>
            </g>
            <polygon class="cls-15" points="-5.25 -81.86 646.13 78.18 -5.25 404.27 -5.25 -81.86"/>
            <g>
              <polygon class="cls-13" points="648.32 78.1 804.16 -80.4 1414.89 -80.36 1316.96 658.23 648.32 78.1"/>
              <path class="cls-5" d="M804.79-78.9l608.39,.03-97.35,734.14L650.51,78.01l154.28-156.91m-1.26-3l-157.4,160.08,671.94,583.01,98.53-743.06-613.07-.03h0Z"/>
            </g>
            <g>
              <polygon class="cls-14" points="933.63 655.75 650.79 84.21 1314.01 659.65 933.63 655.75"/>
              <path class="cls-5" d="M655.44,90.23l654.5,567.88-375.38-3.85L655.44,90.23m-9.31-12.05l286.56,579.06,385.38,3.95L646.13,78.18h0Z"/>
            </g>
            <g>
              <polygon class="cls-8" points="1417.92 -80.36 1712.34 -80.36 1895.23 565.12 1319.83 659.39 1417.92 -80.36"/>
              <path class="cls-5" d="M1711.2-78.86l182.13,642.78-571.75,93.67,97.65-736.44h291.97m2.27-3h-296.86l-98.53,743.06,579.06-94.86L1713.47-81.86h0Z"/>
            </g>
            <g>
              <polygon class="cls-9" points="1326.19 661.92 1893.96 568.37 1704.92 850.96 1326.19 661.92"/>
              <path class="cls-5" d="M1890.79,570.42l-186.38,278.61-373.41-186.38,559.79-92.23m6.34-4.09l-575.76,94.86,384.06,191.7,191.7-286.56h0Z"/>
            </g>
            <g>
              <polygon class="cls-28" points="1715.45 -80.36 2329.68 -80.36 1897.7 562.81 1715.45 -80.36"/>
              <path class="cls-5" d="M2326.86-78.86l-428.61,638.14L1717.44-78.86h609.43m5.63-3h-619.02l183.67,648.19L2332.49-81.86h0Z"/>
            </g>
            <g>
              <polygon class="cls-29" points="1899.64 565.29 2333.29 -80.36 2455.83 -80.36 2380.27 659.4 1899.64 565.29"/>
              <path class="cls-5" d="M2454.17-78.86l-75.22,736.48-476.8-93.36L2334.09-78.86h120.07m3.32-3h-125l-435.36,648.19,484.46,94.86,75.89-743.06h0Z"/>
            </g>
            <g>
              <polygon class="cls-27" points="2458.84 -80.36 3015.95 -80.36 3636.2 176.95 2383.34 658.92 2458.84 -80.36"/>
              <path class="cls-5" d="M3015.65-78.86l616.5,255.76-1247.08,479.75,75.12-735.5h555.45m.6-3h-558.76l-75.89,743.06L3640.24,177,3016.25-81.86h0Z"/>
            </g>
            <g>
              <polygon class="cls-26" points="3025.27 -79.74 3608.64 -80.36 3638.45 174.63 3025.27 -79.74"/>
              <path class="cls-5" d="M3607.31-78.86l29.36,251.13-603.88-250.52,574.53-.61m2.67-3l-592.22,.63,622.48,258.23-30.26-258.86h0Z"/>
            </g>
            <g>
              <polygon class="cls-4" points="3611.66 -80.36 3724.33 -80.36 3640.94 170.13 3611.66 -80.36"/>
              <path class="cls-5" d="M3722.25-78.86l-80.6,242.12-28.3-242.12h108.91m4.16-3h-116.44l30.26,258.86,86.18-258.86h0Z"/>
            </g>
            <g>
              <polygon class="cls-16" points="3642.6 177.81 3848.5 110.61 3848.23 480.43 3642.6 177.81"/>
              <path class="cls-5" d="M3847,112.68l-.26,362.88-201.77-296.95,202.04-65.93m3-4.14l-209.76,68.46,209.49,308.3,.27-376.76h0Z"/>
            </g>
            <g>
              <polygon class="cls-22" points="3643.81 185.02 3848.5 490.68 3848.5 933.63 3834.83 943.29 3643.81 185.02"/>
              <path class="cls-5" d="M3647.37,193.05l199.63,298.09v441.72l-11.24,7.95-188.38-747.76m-7.14-16.05l193.68,768.78,16.08-11.38V490.22l-209.76-313.23h0Z"/>
            </g>
            <g>
              <polygon class="cls-24" points="2386.96 660.74 3639.2 179.01 3832.35 945.72 3830.93 949.98 2386.96 660.74"/>
              <path class="cls-5" d="M3638.15,181.01l192.64,764.65-.86,2.58-1437.61-287.97L3638.15,181.01m2.08-4.02l-1258.64,484.19,1450.34,290.52,1.98-5.93-193.68-768.78h0Z"/>
            </g>
            <g>
              <polygon class="cls-25" points="2385.23 663.5 3829.63 952.78 3351.44 1814.7 2385.23 663.5"/>
              <path class="cls-5" d="M2389.12,665.81l1438.2,288.03-476.13,858.22-962.06-1146.25m-7.79-4.62l970.37,1156.14,480.24-865.62-1450.61-290.52h0Z"/>
            </g>
            <g>
              <polygon class="cls-17" points="2383.96 666.66 3349.26 1816.77 2674.93 2114.15 2383.96 666.66"/>
              <path class="cls-5" d="M2386.59,672.12l960.24,1144.08-670.8,295.83-289.44-1439.9m-5.26-10.93l292.49,1455.09,677.87-298.95-970.37-1156.14h0Z"/>
            </g>
            <g>
              <polygon class="cls-23" points="1897.83 567.99 2374.89 661.46 1708.95 850.34 1897.83 567.99"/>
              <path class="cls-5" d="M1898.52,569.66l469.93,92.07-655.99,186.06,186.06-278.12m-1.38-3.33l-191.7,286.56,675.9-191.7-484.19-94.86h0Z"/>
            </g>
            <g>
              <polygon class="cls-19" points="1707.97 853.73 2380.18 663.08 2671.08 2110.23 1707.97 853.73"/>
              <path class="cls-5" d="M2379.03,664.96l289.3,1439.22L1710.5,854.58l668.53-189.61m2.3-3.77l-675.9,191.7,968.39,1263.38-292.49-1455.09h0Z"/>
            </g>
            <g>
              <polygon class="cls-20" points="1320.45 1239.01 1705.28 855.16 2667.36 2110.31 1320.45 1239.01"/>
              <path class="cls-5" d="M1705.13,857.43l955.76,1246.91-1338.07-865.58,382.3-381.33m.3-4.54l-387.36,386.37,1355.75,877.02L1705.43,852.89h0Z"/>
            </g>
            <g>
              <polygon class="cls-18" points="935.51 658.77 1319.86 662.68 1316.61 1235.3 935.51 658.77"/>
              <path class="cls-5" d="M938.32,660.3l380.04,3.86-3.22,566.19-376.82-570.06m-5.62-3.06l385.38,583.01,3.29-579.06-388.67-3.95h0Z"/>
            </g>
            <g>
              <polygon class="cls-4" points="933.08 660.55 1315.97 1239.78 548.23 1711.03 933.08 660.55"/>
              <path class="cls-5" d="M933.47,663.85l380.39,575.47-762.74,468.18L933.47,663.85m-.77-6.61l-387.36,1057.32,772.74-474.31-385.38-583.01h0Z"/>
            </g>
            <g>
              <polygon class="cls-21" points="1322.86 663.61 1702.9 853.31 1319.6 1236.61 1322.86 663.61"/>
              <path class="cls-5" d="M1324.34,666.03l376.02,187.69-379.25,379.25,3.22-566.94m-2.97-4.84l-3.29,579.06,387.36-387.36-384.06-191.7h0Z"/>
            </g>
            <g>
              <polygon class="cls-30" points="-3.75 1294.47 -2.85 721.53 930.5 658.89 544.63 1712.14 -3.75 1294.47"/>
              <path class="cls-5" d="M928.29,660.54l-384.37,1049.17L-2.24,1293.73l.89-570.8,929.64-62.39m4.4-3.3L-4.35,720.13l-.9,575.09,550.59,419.35L932.7,657.24h0Z"/>
            </g>
          </g>
        </g>
      </g>
    </g>
  </g>
</svg>